<svg width="18" height="12" viewBox="0 0 18 12" fill="none" xmlns="http://www.w3.org/2000/svg">
<path fill-rule="evenodd" clip-rule="evenodd" d="M16.666 0.666504H15.666C15.1137 0.666504 14.666 1.11422 14.666 1.6665V10.3332C14.666 10.8855 15.1137 11.3332 15.666 11.3332H16.666C17.2183 11.3332 17.666 10.8855 17.666 10.3332V1.6665C17.666 1.11422 17.2183 0.666504 16.666 0.666504ZM10.9993 2.99984H11.9993C12.5516 2.99984 12.9993 3.44755 12.9993 3.99984V10.3332C12.9993 10.8855 12.5516 11.3332 11.9993 11.3332H10.9993C10.4471 11.3332 9.99935 10.8855 9.99935 10.3332V3.99984C9.99935 3.44755 10.4471 2.99984 10.9993 2.99984ZM7.33268 5.33317H6.33268C5.7804 5.33317 5.33268 5.78089 5.33268 6.33317V10.3332C5.33268 10.8855 5.7804 11.3332 6.33268 11.3332H7.33268C7.88497 11.3332 8.33268 10.8855 8.33268 10.3332V6.33317C8.33268 5.78089 7.88497 5.33317 7.33268 5.33317ZM2.66602 7.33317H1.66602C1.11373 7.33317 0.666016 7.78089 0.666016 8.33317V10.3332C0.666016 10.8855 1.11373 11.3332 1.66602 11.3332H2.66602C3.2183 11.3332 3.66602 10.8855 3.66602 10.3332V8.33317C3.66602 7.78089 3.2183 7.33317 2.66602 7.33317Z" fill="white"/>
</svg>
