<svg width="11" height="11" viewBox="0 0 11 11" fill="none" xmlns="http://www.w3.org/2000/svg">
<path fill-rule="evenodd" clip-rule="evenodd" d="M0.792893 8.79289C0.402369 9.18342 0.402369 9.81658 0.792893 10.2071C1.18342 10.5976 1.81658 10.5976 2.20711 10.2071L10.2071 2.20711C10.5976 1.81658 10.5976 1.18342 10.2071 0.792893C9.81658 0.402369 9.18342 0.402369 8.79289 0.792893L0.792893 8.79289ZM5.29289 9.29289C4.90237 9.68342 4.90237 10.3166 5.29289 10.7071C5.68342 11.0976 6.31658 11.0976 6.70711 10.7071L10.7071 6.70711C11.0976 6.31658 11.0976 5.68342 10.7071 5.29289C10.3166 4.90237 9.68342 4.90237 9.29289 5.29289L5.29289 9.29289Z" fill="#6F6C6B"/>
</svg>
